<?xml version="1.0" standalone="no"?>
<!DOCTYPE svg PUBLIC "-//W3C//DTD SVG 1.1//EN" "http://www.w3.org/Graphics/SVG/1.1/DTD/svg11.dtd">
<svg version="1.1" xmlns="http://www.w3.org/2000/svg" viewBox="0 0 622.3609223051462 440.1010968503449" width="1244.7218446102925" height="880.2021937006898"><!-- svg-source:excalidraw --><metadata></metadata><defs><style class="style-fonts">
      </style></defs><rect x="0" y="0" width="622.3609223051462" height="440.1010968503449" fill="#ffffff"></rect><g stroke-linecap="round"><g transform="translate(71.18551593124869 9.794396426985031) rotate(0 0.3130439728498402 210.25615199818742)"><path d="M-0.8 0.82 C-0.63 70.7, 1.02 350.59, 1.43 420.31 M0.98 0.21 C0.94 70.27, 0.4 348.58, 0.38 418.59" stroke="#1e1e1e" stroke-width="2" fill="none"></path></g></g><mask></mask><g stroke-linecap="round"><g transform="translate(11.107390931248688 380.07174017698503) rotate(0 300.07307022132443 -0.44207014739509987)"><path d="M-1.11 0.33 C98.56 0.21, 498.99 -1.13, 598.94 -1.22 M0.51 -0.54 C100.48 -0.51, 501.18 -0.49, 601.25 -0.21" stroke="#1e1e1e" stroke-width="2" fill="none"></path></g></g><mask></mask><g stroke-linecap="round"><g transform="translate(156.0448909312487 144.21627142698503) rotate(0 0.7978037205384965 116.53970908820628)"><path d="M0.87 -1.15 C1.3 38.02, 1.52 195.12, 1.73 234.23 M-0.13 0.87 C0.24 39.75, 0.66 193.44, 0.97 232.42" stroke="#2f9e44" stroke-width="2" fill="none"></path></g></g><mask></mask><g stroke-linecap="round"><g transform="translate(514.4628596812487 99.88033392698503) rotate(0 -0.08726822107564658 139.1375447145011)"><path d="M0.35 -0.06 C0.64 46.13, 0.69 231.68, 0.75 277.89 M-0.92 -1.14 C-0.69 45.19, -0.29 232.88, -0.15 279.42" stroke="#2f9e44" stroke-width="2" fill="none"></path></g></g><mask></mask><g stroke-linecap="round"><g transform="translate(447.8612971812487 60.43892767698503) rotate(0 -0.33317592838739074 158.41808323054576)"><path d="M-1.14 0.29 C-1.01 53.12, 0.08 263.47, 0.16 316.49 M0.46 -0.61 C0.56 52.37, -0.07 264.59, -0.39 317.44" stroke="#f08c00" stroke-width="2" fill="none"></path></g></g><mask></mask><g stroke-linecap="round"><g stroke-opacity="0.4" fill-opacity="0.4" transform="translate(158.7909846812487 144.87642767698503) rotate(0 177.3707372716116 0.6168542175163623)"><path d="M0.48 -0.64 C59.7 -0.7, 296.31 0.44, 355.47 0.78 M-0.73 1.63 C58.42 2.19, 295.82 1.6, 355.15 1.74" stroke="#2f9e44" stroke-width="2" fill="none"></path></g></g><mask></mask><g stroke-linecap="round"><g transform="translate(222.9042659312487 119.65767767698503) rotate(0 -0.2680339050683642 129.2741693726089)"><path d="M0.55 0.45 C0.43 43.34, 0.04 214.75, 0.18 257.82 M-0.63 -0.36 C-1.01 42.62, -1.24 215.47, -0.95 258.91" stroke="#f08c00" stroke-width="2" fill="none"></path></g></g><mask></mask><g stroke-linecap="round"><g stroke-opacity="0.4" fill-opacity="0.4" transform="translate(224.3964534312487 119.88814642698503) rotate(0 144.82338935048318 0.9591673222533927)"><path d="M0.39 -0.55 C48.41 -0.17, 240.05 0.73, 288.26 1.23 M-0.87 1.78 C47.51 2.38, 242.18 2.61, 290.52 2.38" stroke="#f08c00" stroke-width="2" fill="none"></path></g></g><mask></mask><g stroke-linecap="round"><g transform="translate(169.7948909312487 257.54439642698503) rotate(0 21.531072514274854 -0.6253452045226027)"><path d="M0.34 0.19 C7.62 -0.01, 36.09 -0.37, 43.2 -0.64 M-0.14 -0.19 C7.08 -0.31, 35.27 -1.28, 42.65 -1.44" stroke="#e03131" stroke-width="2" fill="none"></path></g><g transform="translate(169.7948909312487 257.54439642698503) rotate(0 21.531072514274854 -0.6253452045226027)"><path d="M22.45 6.57 C27.16 4.32, 31.82 2.26, 42.65 -1.44 M22.45 6.57 C26.97 4.52, 30.5 2.8, 42.65 -1.44" stroke="#e03131" stroke-width="2" fill="none"></path></g><g transform="translate(169.7948909312487 257.54439642698503) rotate(0 21.531072514274854 -0.6253452045226027)"><path d="M22.03 -8.29 C26.9 -7.3, 31.66 -6.12, 42.65 -1.44 M22.03 -8.29 C26.64 -7.23, 30.26 -5.85, 42.65 -1.44" stroke="#e03131" stroke-width="2" fill="none"></path></g></g><mask></mask><g stroke-linecap="round"><g transform="translate(501.6464534312487 256.87642767698503) rotate(0 -20.926009717334523 0.06188767002197437)"><path d="M-0.42 0.09 C-7.42 0.15, -34.92 -0.04, -41.89 -0.06 M0.37 -0.33 C-6.7 -0.19, -35.05 0.34, -42.22 0.46" stroke="#e03131" stroke-width="2" fill="none"></path></g><g transform="translate(501.6464534312487 256.87642767698503) rotate(0 -20.926009717334523 0.06188767002197437)"><path d="M-22.58 -7.09 C-28.75 -4.38, -35.86 -2.61, -42.22 0.46 M-22.58 -7.09 C-27.12 -4.8, -31.85 -3.01, -42.22 0.46" stroke="#e03131" stroke-width="2" fill="none"></path></g><g transform="translate(501.6464534312487 256.87642767698503) rotate(0 -20.926009717334523 0.06188767002197437)"><path d="M-22.32 7.31 C-28.53 5.39, -35.72 2.52, -42.22 0.46 M-22.32 7.31 C-26.96 6.15, -31.75 4.49, -42.22 0.46" stroke="#e03131" stroke-width="2" fill="none"></path></g></g><mask></mask></svg>